{
  "accessors": [
    {
      "bufferView": 1,
      "componentType": 5126,
      "count": 1862,
      "max": [
        1,
        1.1276500225067139,
        1.0003700256347656
      ],
      "min": [
        -1,
        -1.1276500225067139,
        -1
      ],
      "type": "VEC3"
    },
    {
      "bufferView": 1,
      "byteOffset": 22344,
      "componentType": 5126,
      "count": 1862,
      "max": [
        1,
        1,
        1
      ],
      "min": [
        -1,
        -1,
        -1
      ],
      "type": "VEC3"
    },
    {
      "bufferView": 0,
      "componentType": 5125,
      "count": 8244,
      "max": [
        1861
      ],
      "min": [
        0
      ],
      "type": "SCALAR"
    },
    {
      "bufferView": 1,
      "byteOffset": 44688,
      "componentType": 5126,
      "count": 1088,
      "max": [
        1,
        1,
        1
      ],
      "min": [
        -1,
        -1,
        -1
      ],
      "type": "VEC3"
    },
    {
      "bufferView": 1,
      "byteOffset": 57744,
      "componentType": 5126,
      "count": 1088,
      "max": [
        0.99518442153930664,
        0.99518442153930664,
        1
      ],
      "min": [
        -0.99518442153930664,
        -0.99518442153930664,
        -1
      ],
      "type": "VEC3"
    },
    {
      "bufferView": 0,
      "byteOffset": 32976,
      "componentType": 5125,
      "count": 1716,
      "max": [
        1087
      ],
      "min": [
        0
      ],
      "type": "SCALAR"
    },
    {
      "bufferView": 1,
      "byteOffset": 70800,
      "componentType": 5126,
      "count": 768,
      "max": [
        -0.22452999651432037,
        -6.2054901123046875,
        -0.21257999539375305
      ],
      "min": [
        -0.73930001258850098,
        -6.2241101264953613,
        -0.41999998688697815
      ],
      "type": "VEC3"
    },
    {
      "bufferView": 1,
      "byteOffset": 80016,
      "componentType": 5126,
      "count": 768,
      "max": [
        0.99946284294128418,
        1,
        0.99945998191833496
      ],
      "min": [
        -0.99946671724319458,
        -1,
        -0.99946677684783936
      ],
      "type": "VEC3"
    },
    {
      "bufferView": 0,
      "byteOffset": 39840,
      "componentType": 5125,
      "count": 1536,
      "max": [
        767
      ],
      "min": [
        0
      ],
      "type": "SCALAR"
    },
    {
      "bufferView": 1,
      "byteOffset": 89232,
      "componentType": 5126,
      "count": 518,
      "max": [
        1,
        8.3351297378540039,
        1
      ],
      "min": [
        -1,
        -10.016429901123047,
        -1
      ],
      "type": "VEC3"
    },
    {
      "bufferView": 1,
      "byteOffset": 95448,
      "componentType": 5126,
      "count": 518,
      "max": [
        0.99999994039535522,
        1,
        0.99999982118606567
      ],
      "min": [
        -0.99999988079071045,
        -1,
        -0.99999988079071045
      ],
      "type": "VEC3"
    },
    {
      "bufferView": 0,
      "byteOffset": 45984,
      "componentType": 5125,
      "count": 1716,
      "max": [
        517
      ],
      "min": [
        0
      ],
      "type": "SCALAR"
    },
    {
      "bufferView": 1,
      "byteOffset": 101664,
      "componentType": 5126,
      "count": 518,
      "max": [
        1,
        8.3351297378540039,
        1
      ],
      "min": [
        -1,
        -10.016429901123047,
        -1
      ],
      "type": "VEC3"
    },
    {
      "bufferView": 1,
      "byteOffset": 107880,
      "componentType": 5126,
      "count": 518,
      "max": [
        0.99999994039535522,
        1,
        0.99999982118606567
      ],
      "min": [
        -0.99999988079071045,
        -1,
        -0.99999988079071045
      ],
      "type": "VEC3"
    },
    {
      "bufferView": 0,
      "byteOffset": 52848,
      "componentType": 5125,
      "count": 1716,
      "max": [
        517
      ],
      "min": [
        0
      ],
      "type": "SCALAR"
    }
  ],
  "asset": {
    "extras": {
      "author": "kaura (https://sketchfab.com/kaura)",
      "license": "CC-BY-4.0 (http://creativecommons.org/licenses/by/4.0/)",
      "source": "https://sketchfab.com/models/5f78e25fca2b400bb15f8bbd2eb96637",
      "title": "Simple Smartphone"
    },
    "generator": "Sketchfab-4.14.0",
    "version": "2.0"
  },
  "bufferViews": [
    {
      "buffer": 0,
      "byteLength": 59712,
      "byteOffset": 0,
      "name": "floatBufferViews",
      "target": 34963
    },
    {
      "buffer": 0,
      "byteLength": 114096,
      "byteOffset": 59712,
      "byteStride": 12,
      "name": "floatBufferViews",
      "target": 34962
    }
  ],
  "buffers": [
    {
      "byteLength": 173808,
      "uri": "scene.bin"
    }
  ],
  "materials": [
    {
      "doubleSided": true,
      "emissiveFactor": [
        0,
        0,
        0
      ],
      "name": "Material.005",
      "pbrMetallicRoughness": {
        "baseColorFactor": [
          0.1192753688,
          0.10951429610000001,
          0.10951429610000001,
          1
        ],
        "metallicFactor": 0,
        "roughnessFactor": 0.59999999999999998
      }
    },
    {
      "doubleSided": true,
      "emissiveFactor": [
        0,
        0,
        0
      ],
      "name": "Material.004",
      "pbrMetallicRoughness": {
        "baseColorFactor": [
          0.014665703299999999,
          0.0133526316,
          0.0136533808,
          1
        ],
        "metallicFactor": 0,
        "roughnessFactor": 0.59999999999999998
      }
    },
    {
      "doubleSided": true,
      "emissiveFactor": [
        0,
        0,
        0
      ],
      "name": "Material.006",
      "pbrMetallicRoughness": {
        "baseColorFactor": [
          0.044454455400000002,
          0.044454455400000002,
          0.044454455400000002,
          1
        ],
        "metallicFactor": 0,
        "roughnessFactor": 0.59999999999999998
      }
    },
    {
      "doubleSided": true,
      "emissiveFactor": [
        0,
        0,
        0
      ],
      "name": "Material.003",
      "pbrMetallicRoughness": {
        "baseColorFactor": [
          0.0100216921,
          0.0100216921,
          0.0100216921,
          1
        ],
        "metallicFactor": 0,
        "roughnessFactor": 0.59999999999999998
      }
    },
    {
      "doubleSided": true,
      "emissiveFactor": [
        0,
        0,
        0
      ],
      "name": "Material.002",
      "pbrMetallicRoughness": {
        "baseColorFactor": [
          0.025234131100000001,
          0.025394080199999999,
          0.022720405799999999,
          1
        ],
        "metallicFactor": 0,
        "roughnessFactor": 0.59999999999999998
      }
    }
  ],
  "meshes": [
    {
      "name": "Cube.004_0",
      "primitives": [
        {
          "attributes": {
            "NORMAL": 1,
            "POSITION": 0
          },
          "indices": 2,
          "material": 4,
          "mode": 4
        }
      ]
    },
    {
      "name": "Cylinder_0",
      "primitives": [
        {
          "attributes": {
            "NORMAL": 4,
            "POSITION": 3
          },
          "indices": 5,
          "material": 3,
          "mode": 4
        }
      ]
    },
    {
      "name": "Circle_0",
      "primitives": [
        {
          "attributes": {
            "NORMAL": 7,
            "POSITION": 6
          },
          "indices": 8,
          "material": 2,
          "mode": 4
        }
      ]
    },
    {
      "name": "Cube.005_0",
      "primitives": [
        {
          "attributes": {
            "NORMAL": 10,
            "POSITION": 9
          },
          "indices": 11,
          "material": 1,
          "mode": 4
        }
      ]
    },
    {
      "name": "Cube.006_0",
      "primitives": [
        {
          "attributes": {
            "NORMAL": 13,
            "POSITION": 12
          },
          "indices": 14,
          "material": 0,
          "mode": 4
        }
      ]
    }
  ],
  "nodes": [
    {
      "children": [
        1
      ],
      "name": "RootNode (gltf orientation matrix)",
      "rotation": [
        -0.70710678118654746,
        -0,
        -0,
        0.70710678118654757
      ]
    },
    {
      "children": [
        2
      ],
      "name": "RootNode (model correction matrix)"
    },
    {
      "children": [
        3,
        5,
        7,
        9,
        11
      ],
      "name": "Root"
    },
    {
      "children": [
        4
      ],
      "matrix": [
        -1.3042899999999999,
        0,
        0,
        0,
        0,
        0.17446000000000003,
        0,
        0,
        0,
        0,
        2.52121,
        0,
        0,
        0,
        0,
        1
      ],
      "name": "Cube.004"
    },
    {
      "mesh": 0,
      "name": "Cube.004_0"
    },
    {
      "children": [
        6
      ],
      "matrix": [
        0,
        0,
        -0.025190000000000004,
        0,
        0.17756000000000002,
        -0,
        0,
        0,
        -0,
        -0.076050000000000006,
        -0,
        0,
        -0.0064200000000000021,
        0.14762,
        2.30471,
        1
      ],
      "name": "Cylinder"
    },
    {
      "mesh": 1,
      "name": "Cylinder_0"
    },
    {
      "children": [
        8
      ],
      "matrix": [
        1,
        0,
        0,
        0,
        0,
        0.99995999999999996,
        0,
        0,
        0,
        0,
        1,
        0,
        0.16018000000000002,
        6.0011700000000001,
        1.8870100000000001,
        1
      ],
      "name": "Circle"
    },
    {
      "mesh": 2,
      "name": "Circle_0"
    },
    {
      "children": [
        10
      ],
      "matrix": [
        0.72276000000000007,
        0,
        0,
        0,
        0,
        -0.0038700000000000015,
        0,
        0,
        0,
        0,
        0.30616000000000004,
        0,
        -0.042360000000000009,
        -0.20095000000000002,
        1.58311,
        1
      ],
      "name": "Cube.005"
    },
    {
      "mesh": 3,
      "name": "Cube.005_0"
    },
    {
      "children": [
        12
      ],
      "matrix": [
        -0.083540000000000017,
        0,
        0,
        0,
        0,
        0.0016200000000000003,
        0,
        0,
        0,
        0,
        -0.20477000000000001,
        0,
        0.45089000000000001,
        -0.20097000000000001,
        1.57178,
        1
      ],
      "name": "Cube.006"
    },
    {
      "mesh": 4,
      "name": "Cube.006_0"
    }
  ],
  "scene": 0,
  "scenes": [
    {
      "name": "OSG_Scene",
      "nodes": [
        0
      ]
    }
  ]
}

